<svg xmlns="http://www.w3.org/2000/svg" xmlns:xlink="http://www.w3.org/1999/xlink" width="500" zoomAndPan="magnify" viewBox="0 0 375 374.999991" height="500" preserveAspectRatio="xMidYMid meet" version="1.0"><defs><clipPath id="bb9ccc02a2"><path d="M 20.667969 29.082031 L 346.917969 29.082031 L 346.917969 355.332031 L 20.667969 355.332031 Z M 20.667969 29.082031 " clip-rule="nonzero"/></clipPath></defs><path fill="#004aad" d="M 232.894531 211.101562 C 229.195312 211.101562 225.675781 212.214844 222.683594 214.257812 C 219.585938 211.96875 215.886719 210.679688 211.960938 210.679688 C 207.109375 210.679688 202.546875 212.570312 199.113281 216 C 197.519531 217.597656 197.519531 220.183594 199.113281 221.773438 C 200.710938 223.371094 203.296875 223.371094 204.886719 221.773438 C 208.667969 217.996094 215.253906 217.992188 219.035156 221.773438 C 220.925781 223.664062 221.964844 226.175781 221.964844 228.847656 C 221.964844 231.519531 220.925781 234.03125 219.035156 235.921875 C 217.441406 237.515625 217.441406 240.101562 219.035156 241.695312 C 219.832031 242.492188 220.878906 242.890625 221.921875 242.890625 C 222.964844 242.890625 224.011719 242.492188 224.808594 241.695312 C 228.242188 238.261719 230.128906 233.703125 230.128906 228.847656 C 230.128906 225.917969 229.367188 223.132812 228.0625 220.597656 C 231.851562 218.578125 236.855469 219.082031 239.96875 222.199219 C 240.765625 222.996094 241.808594 223.394531 242.855469 223.394531 C 243.898438 223.394531 244.945312 222.996094 245.742188 222.199219 C 247.335938 220.605469 247.335938 218.019531 245.742188 216.425781 C 242.308594 212.992188 237.746094 211.101562 232.894531 211.101562 Z M 232.894531 211.101562 " fill-opacity="1" fill-rule="nonzero"/><path fill="#004aad" d="M 265.503906 199.339844 C 264.503906 198.292969 263.425781 197.320312 262.28125 196.429688 C 267.347656 192.804688 270.617188 186.878906 270.617188 180.363281 C 270.617188 171.4375 264.664062 163.855469 256.515625 161.390625 C 258.398438 154.96875 258.070312 148.054688 255.507812 141.453125 C 252.511719 133.746094 246.085938 127.515625 238.316406 124.792969 C 231.949219 122.554688 225.441406 122.347656 219.441406 124.058594 C 219.710938 120.871094 219.207031 117.570312 217.890625 114.375 C 215.863281 109.445312 211.820312 105.597656 206.796875 103.816406 C 200.390625 101.539062 193.640625 102.40625 188.28125 106.1875 C 186.609375 107.371094 185.179688 108.808594 183.96875 110.402344 C 182.753906 108.808594 181.324219 107.371094 179.652344 106.1875 C 174.296875 102.40625 167.546875 101.539062 161.136719 103.816406 C 156.113281 105.597656 152.074219 109.445312 150.042969 114.375 C 148.726562 117.570312 148.222656 120.871094 148.496094 124.058594 C 142.496094 122.34375 135.988281 122.554688 129.617188 124.792969 C 121.851562 127.515625 115.421875 133.746094 112.425781 141.453125 C 109.863281 148.054688 109.535156 154.96875 111.417969 161.390625 C 103.273438 163.855469 97.316406 171.4375 97.316406 180.363281 C 97.316406 186.878906 100.589844 192.804688 105.652344 196.429688 C 104.507812 197.320312 103.429688 198.292969 102.429688 199.339844 C 102.425781 199.339844 102.425781 199.339844 102.425781 199.339844 C 97.050781 204.953125 94.089844 212.324219 94.089844 220.097656 C 94.089844 233.132812 102.398438 244.4375 114.410156 248.519531 C 113.28125 253.523438 113.828125 258.707031 116.046875 263.75 C 118.367188 269.015625 122.792969 273.3125 128.175781 275.53125 C 134.539062 278.160156 141.148438 278.117188 147.113281 275.484375 C 151.671875 279.859375 157.578125 282.183594 163.769531 282.183594 C 166.894531 282.183594 170.09375 281.589844 173.226562 280.371094 C 177.664062 278.640625 181.371094 275.519531 183.96875 271.578125 C 186.566406 275.519531 190.273438 278.640625 194.707031 280.371094 C 197.839844 281.589844 201.039062 282.183594 204.167969 282.183594 C 210.355469 282.183594 216.261719 279.859375 220.820312 275.484375 C 226.792969 278.117188 233.398438 278.15625 239.753906 275.535156 C 245.144531 273.3125 249.566406 269.015625 251.886719 263.75 C 254.109375 258.707031 254.652344 253.523438 253.523438 248.519531 C 265.535156 244.4375 273.847656 233.132812 273.847656 220.097656 C 273.847656 212.324219 270.882812 204.953125 265.507812 199.339844 C 265.507812 199.339844 265.507812 199.339844 265.503906 199.339844 Z M 170.265625 272.761719 C 161.710938 276.089844 154.8125 272.417969 151.203125 267.871094 C 150.402344 266.863281 149.210938 266.328125 148.003906 266.328125 C 147.269531 266.328125 146.527344 266.523438 145.863281 266.9375 C 142.734375 268.867188 137.671875 270.617188 131.289062 267.980469 C 127.832031 266.558594 124.996094 263.8125 123.519531 260.457031 C 121.0625 254.875 122.085938 250.230469 123.378906 247.3125 C 123.886719 246.164062 123.839844 244.84375 123.246094 243.738281 C 122.65625 242.628906 121.585938 241.851562 120.347656 241.636719 C 109.863281 239.800781 102.253906 230.742188 102.253906 220.097656 C 102.253906 214.441406 104.40625 209.078125 108.320312 204.992188 C 110.550781 202.664062 113.308594 200.828125 116.300781 199.675781 C 118.03125 199.011719 119.09375 197.261719 118.890625 195.417969 C 118.6875 193.574219 117.265625 192.097656 115.429688 191.828125 C 109.664062 190.972656 105.480469 186.152344 105.480469 180.363281 C 105.480469 173.964844 110.683594 168.742188 117.082031 168.714844 C 118.496094 168.707031 119.808594 167.96875 120.546875 166.765625 C 121.285156 165.5625 121.347656 164.0625 120.714844 162.796875 C 118.703125 158.792969 116.953125 152.355469 120.039062 144.414062 C 122.179688 138.898438 126.773438 134.441406 132.320312 132.492188 C 139.941406 129.820312 147.785156 131.042969 153.839844 135.835938 C 155.492188 137.144531 157.871094 136.980469 159.324219 135.460938 C 160.78125 133.9375 160.839844 131.558594 159.460938 129.964844 C 156.445312 126.476562 155.765625 121.925781 157.59375 117.484375 C 158.722656 114.738281 161.070312 112.503906 163.867188 111.511719 C 167.746094 110.128906 171.773438 110.625 174.941406 112.859375 C 178.035156 115.042969 179.882812 118.605469 179.882812 122.390625 L 179.882812 232.574219 C 176.285156 229.746094 171.808594 227.988281 166.886719 227.988281 C 155.21875 227.988281 145.726562 237.480469 145.726562 249.148438 C 145.726562 251.402344 147.554688 253.230469 149.808594 253.230469 C 152.0625 253.230469 153.890625 251.402344 153.890625 249.148438 C 153.890625 241.980469 159.722656 236.152344 166.886719 236.152344 C 174.054688 236.152344 179.882812 241.980469 179.882812 249.148438 L 179.882812 257.898438 C 179.882812 264.546875 176.015625 270.519531 170.265625 272.761719 Z M 247.585938 241.636719 C 246.347656 241.851562 245.277344 242.628906 244.6875 243.738281 C 244.09375 244.84375 244.046875 246.164062 244.558594 247.3125 C 245.847656 250.230469 246.875 254.875 244.414062 260.457031 C 242.9375 263.8125 240.105469 266.558594 236.644531 267.984375 C 230.269531 270.617188 225.199219 268.867188 222.070312 266.9375 C 220.3125 265.851562 218.015625 266.253906 216.730469 267.871094 C 213.121094 272.417969 206.226562 276.09375 197.667969 272.761719 C 191.917969 270.519531 188.050781 264.546875 188.050781 257.898438 L 188.050781 176.308594 C 191.648438 179.136719 196.125 180.894531 201.046875 180.894531 C 212.714844 180.894531 222.207031 171.402344 222.207031 159.730469 C 222.207031 157.476562 220.382812 155.648438 218.125 155.648438 C 215.871094 155.648438 214.042969 157.476562 214.042969 159.730469 C 214.042969 166.898438 208.214844 172.730469 201.046875 172.730469 C 193.878906 172.730469 188.050781 166.898438 188.050781 159.730469 L 188.050781 122.390625 C 188.050781 118.605469 189.898438 115.042969 192.992188 112.859375 C 194.976562 111.460938 197.300781 110.742188 199.714844 110.742188 C 201.148438 110.742188 202.621094 110.996094 204.066406 111.511719 C 206.867188 112.503906 209.210938 114.738281 210.339844 117.484375 C 212.171875 121.925781 211.488281 126.476562 208.472656 129.964844 C 207.09375 131.558594 207.15625 133.9375 208.613281 135.460938 C 210.066406 136.984375 212.445312 137.144531 214.09375 135.835938 C 220.148438 131.039062 227.988281 129.820312 235.613281 132.492188 C 241.160156 134.441406 245.753906 138.898438 247.894531 144.414062 C 250.980469 152.355469 249.230469 158.792969 247.21875 162.796875 C 246.585938 164.0625 246.648438 165.5625 247.386719 166.765625 C 248.128906 167.96875 249.4375 168.707031 250.851562 168.714844 C 257.25 168.742188 262.453125 173.964844 262.453125 180.363281 C 262.453125 186.152344 258.269531 190.972656 252.503906 191.828125 C 250.667969 192.097656 249.246094 193.574219 249.042969 195.417969 C 248.839844 197.261719 249.902344 199.011719 251.632812 199.675781 C 254.625 200.828125 257.382812 202.664062 259.613281 204.992188 C 263.527344 209.078125 265.679688 214.441406 265.679688 220.097656 C 265.679688 230.742188 258.070312 239.800781 247.585938 241.636719 Z M 247.585938 241.636719 " fill-opacity="1" fill-rule="nonzero"/><path fill="#004aad" d="M 153.578125 192.582031 C 153.578125 194.835938 155.40625 196.664062 157.660156 196.664062 C 159.914062 196.664062 161.742188 194.835938 161.742188 192.582031 C 161.742188 186.1875 158.40625 180.582031 153.398438 177.34375 C 153.417969 177.324219 153.441406 177.308594 153.460938 177.289062 C 160.542969 170.207031 160.542969 158.679688 153.460938 151.59375 C 151.867188 150 149.285156 150 147.6875 151.59375 C 146.09375 153.1875 146.09375 155.773438 147.6875 157.367188 C 151.589844 161.269531 151.589844 167.617188 147.6875 171.515625 C 143.789062 175.414062 137.4375 175.414062 133.539062 171.515625 C 131.945312 169.921875 129.359375 169.921875 127.765625 171.515625 C 126.171875 173.113281 126.171875 175.695312 127.765625 177.289062 C 131.308594 180.832031 135.960938 182.601562 140.613281 182.601562 C 141.3125 182.601562 142.007812 182.480469 142.703125 182.402344 C 142.992188 182.46875 143.265625 182.578125 143.574219 182.578125 C 149.089844 182.578125 153.578125 187.066406 153.578125 192.582031 Z M 153.578125 192.582031 " fill-opacity="1" fill-rule="nonzero"/><g clip-path="url(#bb9ccc02a2)"><path fill="#004aad" d="M 343.183594 196.464844 C 345.441406 196.464844 347.269531 194.636719 347.269531 192.382812 C 347.269531 190.128906 345.441406 188.300781 343.183594 188.300781 L 306.441406 188.300781 L 306.441406 131.144531 L 327.71875 131.144531 C 329.292969 134.746094 332.878906 137.269531 337.0625 137.269531 C 342.699219 137.269531 347.269531 132.699219 347.269531 127.0625 C 347.269531 121.425781 342.699219 116.855469 337.0625 116.855469 C 332.878906 116.855469 329.292969 119.378906 327.71875 122.980469 L 306.441406 122.980469 L 306.441406 90.320312 C 306.441406 79.066406 297.285156 69.910156 286.03125 69.910156 L 253.386719 69.910156 L 253.386719 33.164062 C 253.386719 30.910156 251.558594 29.082031 249.304688 29.082031 C 247.050781 29.082031 245.222656 30.910156 245.222656 33.164062 L 245.222656 69.910156 L 188.066406 69.910156 L 188.066406 33.164062 C 188.066406 30.910156 186.238281 29.082031 183.984375 29.082031 C 181.730469 29.082031 179.902344 30.910156 179.902344 33.164062 L 179.902344 69.910156 L 122.746094 69.910156 L 122.746094 48.632812 C 126.347656 47.058594 128.871094 43.472656 128.871094 39.289062 C 128.871094 33.652344 124.300781 29.082031 118.664062 29.082031 C 113.027344 29.082031 108.457031 33.652344 108.457031 39.289062 C 108.457031 43.472656 110.980469 47.058594 114.582031 48.632812 L 114.582031 69.910156 L 81.902344 69.910156 C 70.648438 69.910156 61.492188 79.066406 61.492188 90.320312 L 61.492188 122.980469 L 24.75 122.980469 C 22.496094 122.980469 20.667969 124.808594 20.667969 127.0625 C 20.667969 129.316406 22.496094 131.144531 24.75 131.144531 L 61.492188 131.144531 L 61.492188 188.300781 L 24.75 188.300781 C 22.496094 188.300781 20.667969 190.128906 20.667969 192.382812 C 20.667969 194.636719 22.496094 196.464844 24.75 196.464844 L 61.492188 196.464844 L 61.492188 253.621094 L 40.21875 253.621094 C 38.640625 250.019531 35.054688 247.496094 30.871094 247.496094 C 25.234375 247.496094 20.667969 252.066406 20.667969 257.703125 C 20.667969 263.339844 25.234375 267.910156 30.871094 267.910156 C 35.054688 267.910156 38.640625 265.386719 40.21875 261.785156 L 61.492188 261.785156 L 61.492188 294.445312 C 61.492188 305.703125 70.648438 314.859375 81.902344 314.859375 L 114.5625 314.859375 L 114.5625 336.175781 C 110.972656 337.757812 108.457031 341.335938 108.457031 345.511719 C 108.457031 351.148438 113.027344 355.71875 118.664062 355.71875 C 124.300781 355.71875 128.871094 351.148438 128.871094 345.511719 C 128.871094 341.320312 126.339844 337.730469 122.730469 336.15625 L 122.730469 314.859375 L 179.882812 314.859375 L 179.882812 351.601562 C 179.882812 353.855469 181.710938 355.683594 183.96875 355.683594 C 186.222656 355.683594 188.050781 353.855469 188.050781 351.601562 L 188.050781 314.859375 L 245.203125 314.859375 L 245.203125 351.601562 C 245.203125 353.855469 247.03125 355.683594 249.289062 355.683594 C 251.542969 355.683594 253.371094 353.855469 253.371094 351.601562 L 253.371094 314.859375 L 286.03125 314.859375 C 297.285156 314.859375 306.441406 305.703125 306.441406 294.445312 L 306.441406 261.785156 L 343.183594 261.785156 C 345.441406 261.785156 347.269531 259.957031 347.269531 257.703125 C 347.269531 255.449219 345.441406 253.621094 343.183594 253.621094 L 306.441406 253.621094 L 306.441406 196.464844 Z M 298.277344 294.445312 C 298.277344 301.199219 292.785156 306.695312 286.03125 306.695312 L 81.902344 306.695312 C 75.152344 306.695312 69.65625 301.199219 69.65625 294.445312 L 69.65625 90.320312 C 69.65625 83.566406 75.152344 78.074219 81.902344 78.074219 L 286.03125 78.074219 C 292.785156 78.074219 298.277344 83.566406 298.277344 90.320312 Z M 298.277344 294.445312 " fill-opacity="1" fill-rule="nonzero"/></g></svg>